<svg version="1.2" xmlns="http://www.w3.org/2000/svg" viewBox="0 0 2048 2048" width="2048" height="2048"><style>.a{fill:#8f0f2a}.b{fill:#fff}.c{fill:#ff0}</style><path fill-rule="evenodd" class="a" d="m40 0h1968c22.1 0 40 17.9 40 40v1968c0 22.1-17.9 40-40 40h-1968c-22.1 0-40-17.9-40-40v-1968c0-22.1 17.9-40 40-40z"/><path fill-rule="evenodd" class="b" d="m557 496v416h559c11 0 20 9 20 20v184c0 11-9 20-20 20h-559v630c0 5.5-4.5 10-10 10h-265c-5.5 0-10-4.5-10-10v-650-184-649.6c0-5.5 4.5-10 10-10h1.3q1.3-0.4 2.7-0.4h908c5.5 0 10 4.5 10 10v204c0 5.5-4.5 10-10 10z"/><path fill-rule="evenodd" class="c" d="m1304 1766c0 5.5 4.5 10 10 10h180c5.5 0 10-4.5 10-10v-262h262c5.5 0 10-4.5 10-10v-180c0-5.5-4.5-10-10-10h-262v-262c0-5.5-4.5-10-10-10h-180c-5.5 0-10 4.5-10 10v262h-262c-5.5 0-10 4.5-10 10v180c0 5.5 4.5 10 10 10h262z"/></svg>